<svg width="41" height="41" viewBox="0 0 41 41" fill="none" xmlns="http://www.w3.org/2000/svg">
<rect x="0.421875" y="0.421875" width="39.6562" height="39.6562" rx="12.2344" fill="#D9D9D9" stroke="#0B0B0B" stroke-width="0.84375"/>
<path d="M27.0828 13.7475C27.0776 13.7374 27.069 13.7294 27.0584 13.7251C25.8428 13.1674 24.5599 12.7697 23.242 12.5419C23.23 12.5397 23.2176 12.5413 23.2066 12.5465C23.1956 12.5517 23.1865 12.5603 23.1807 12.5709C23.006 12.888 22.8474 13.2137 22.7055 13.5467C21.2849 13.331 19.8398 13.331 18.4191 13.5467C18.2763 13.2128 18.1152 12.8871 17.9365 12.5709C17.9303 12.5605 17.9212 12.5522 17.9103 12.547C17.8993 12.5418 17.8871 12.54 17.8751 12.5419C16.557 12.7692 15.2741 13.1669 14.0586 13.7252C14.0482 13.7296 14.0394 13.7371 14.0335 13.7467C11.6027 17.3767 10.9369 20.9174 11.2635 24.4143C11.2644 24.4229 11.2671 24.4312 11.2713 24.4387C11.2755 24.4462 11.2811 24.4529 11.2879 24.4582C12.7033 25.5061 14.2864 26.3061 15.9698 26.8238C15.9816 26.8274 15.9943 26.8272 16.006 26.8234C16.0178 26.8195 16.0281 26.8122 16.0355 26.8023C16.3971 26.3104 16.7174 25.7894 16.9933 25.2448C16.9971 25.2374 16.9993 25.2292 16.9997 25.2208C17.0001 25.2124 16.9987 25.2041 16.9956 25.1963C16.9926 25.1885 16.9879 25.1814 16.9819 25.1756C16.9759 25.1697 16.9687 25.1652 16.9608 25.1623C16.4557 24.969 15.9666 24.736 15.4982 24.4655C15.4897 24.4605 15.4826 24.4535 15.4774 24.4451C15.4723 24.4366 15.4693 24.4271 15.4687 24.4172C15.4681 24.4074 15.47 24.3975 15.4741 24.3886C15.4782 24.3796 15.4845 24.3718 15.4923 24.3658C15.5906 24.2922 15.689 24.2156 15.7828 24.1382C15.7911 24.1314 15.8012 24.127 15.8119 24.1255C15.8226 24.1241 15.8335 24.1257 15.8434 24.1301C18.9119 25.5305 22.2339 25.5305 25.2661 24.1301C25.2759 24.1254 25.287 24.1236 25.2978 24.1249C25.3087 24.1262 25.3189 24.1306 25.3274 24.1375C25.4213 24.2149 25.5196 24.2922 25.6186 24.3658C25.6265 24.3717 25.6328 24.3795 25.637 24.3884C25.6412 24.3974 25.6431 24.4072 25.6426 24.417C25.6421 24.4269 25.6392 24.4365 25.6341 24.4449C25.629 24.4534 25.6219 24.4604 25.6134 24.4655C25.1461 24.7383 24.6566 24.9712 24.1501 25.1616C24.1423 25.1646 24.1351 25.1692 24.1292 25.1751C24.1232 25.1811 24.1186 25.1882 24.1156 25.1961C24.1126 25.2039 24.1112 25.2124 24.1117 25.2208C24.1122 25.2292 24.1144 25.2374 24.1182 25.2448C24.3988 25.7864 24.7187 26.3067 25.0753 26.8014C25.0826 26.8116 25.0928 26.8192 25.1046 26.8232C25.1164 26.8272 25.1292 26.8274 25.1411 26.8237C26.8274 26.3077 28.4133 25.5077 29.8305 24.4582C29.8374 24.4531 29.8431 24.4467 29.8474 24.4392C29.8516 24.4318 29.8541 24.4236 29.8549 24.415C30.246 20.3723 29.2002 16.8606 27.0828 13.7475ZM17.4516 22.2851C16.5277 22.2851 15.7665 21.4373 15.7665 20.3961C15.7665 19.3549 16.513 18.5071 17.4516 18.5071C18.3975 18.5071 19.1514 19.3623 19.1366 20.396C19.1366 21.4373 18.3901 22.2851 17.4516 22.2851ZM23.6817 22.2851C22.7579 22.2851 21.9967 21.4373 21.9967 20.3961C21.9967 19.3549 22.7431 18.5071 23.6817 18.5071C24.6277 18.5071 25.3815 19.3623 25.3668 20.396C25.3668 21.4373 24.6277 22.2851 23.6817 22.2851Z" fill="black"/>
</svg>
