<svg width="41" height="41" viewBox="0 0 41 41" fill="none" xmlns="http://www.w3.org/2000/svg">
<rect x="0.921875" y="0.421875" width="39.6562" height="39.6562" rx="12.2344" fill="#D9D9D9" stroke="#0B0B0B" stroke-width="0.84375"/>
<path d="M28.1419 17.0744C28.8684 16.5538 29.5223 15.9292 30.0308 15.2004C29.3769 15.4781 28.6142 15.6863 27.8514 15.7557C28.6505 15.3045 29.2317 14.6105 29.5223 13.7429C28.7958 14.1594 27.9602 14.4717 27.1248 14.6452C26.3983 13.9164 25.4175 13.5 24.3278 13.5C22.221 13.5 20.5137 15.131 20.5137 17.1438C20.5137 17.4214 20.55 17.699 20.6226 17.9766C17.4624 17.8031 14.629 16.3456 12.7401 14.1594C12.4132 14.6799 12.2316 15.3045 12.2316 15.9986C12.2316 17.2479 12.8854 18.3584 13.9388 19.0177C13.3213 18.983 12.7038 18.8442 12.1952 18.5666V18.6013C12.1952 20.3711 13.503 21.8286 15.2465 22.1757C14.9559 22.2451 14.5927 22.3145 14.2658 22.3145C14.0115 22.3145 13.7936 22.2798 13.5393 22.2451C14.0115 23.7026 15.4282 24.7437 17.0991 24.7784C15.7914 25.7501 14.1568 26.3399 12.3769 26.3399C12.05 26.3399 11.7594 26.3053 11.4688 26.2706C13.1397 27.3117 15.1376 27.9016 17.3171 27.9016C24.3278 27.9016 28.1419 22.3839 28.1419 17.5602C28.1419 17.3867 28.1419 17.2479 28.1419 17.0744Z" fill="#0B0B0B"/>
</svg>
